<?xml version="1.0" encoding="UTF-8" standalone="no"?>
<svg
   viewBox="0 0 640 512"
   version="1.1"
   id="svg4"
   sodipodi:docname="user-minus.svg"
   inkscape:version="1.1.2 (b8e25be833, 2022-02-05)"
   xmlns:inkscape="http://www.inkscape.org/namespaces/inkscape"
   xmlns:sodipodi="http://sodipodi.sourceforge.net/DTD/sodipodi-0.dtd"
   xmlns="http://www.w3.org/2000/svg"
   xmlns:svg="http://www.w3.org/2000/svg">
  <defs
     id="defs8" />
  <sodipodi:namedview
     id="namedview6"
     pagecolor="#ffffff"
     bordercolor="#999999"
     borderopacity="1"
     inkscape:pageshadow="0"
     inkscape:pageopacity="0"
     inkscape:pagecheckerboard="0"
     showgrid="false"
     inkscape:zoom="0.73058494"
     inkscape:cx="319.60692"
     inkscape:cy="273.75325"
     inkscape:window-width="1366"
     inkscape:window-height="715"
     inkscape:window-x="-8"
     inkscape:window-y="22"
     inkscape:window-maximized="1"
     inkscape:current-layer="svg4" />
  <!--! Font Awesome Free 6.1.1 by @fontawesome - https://fontawesome.com License - https://fontawesome.com/license/free (Icons: CC BY 4.0, Fonts: SIL OFL 1.1, Code: MIT License) Copyright 2022 Fonticons, Inc. -->
  <g
     id="g604"
     transform="translate(92)">
    <path
       id="rect437"
       style="fill:#800000;fill-rule:evenodd"
       d="m 224,0 c -2.20937,0 -4.40603,0.05542267 -6.58789,0.16601562 -2.18186,0.11059296 -4.34833,0.27563599 -6.5,0.49414063 -2.15167,0.21850464 -4.28745,0.49071805 -6.40625,0.81445315 -2.1188,0.323735 -4.22144,0.7006689 -6.30469,1.1269531 -2.08325,0.4262842 -4.14833,0.9015823 -6.19336,1.4277344 -2.04502,0.526152 -4.0701,1.1012707 -6.07422,1.7246093 -2.00411,0.6233387 -3.98674,1.295828 -5.94726,2.0136719 -1.96053,0.717844 -3.89824,1.4813477 -5.8125,2.2910159 -1.91426,0.809668 -3.80461,1.665642 -5.66992,2.564453 -1.86531,0.898811 -3.70585,1.8409 -5.51953,2.826172 -1.81369,0.985272 -3.60196,2.012979 -5.36133,3.082031 -1.75938,1.069052 -3.48902,2.179927 -5.19141,3.330078 -1.70239,1.150151 -3.3768,2.33979 -5.01953,3.56836 -1.64273,1.228569 -3.25555,2.496475 -4.83594,3.800781 -1.58038,1.304305 -3.12722,2.646077 -4.64258,4.023437 -1.51536,1.377361 -2.99765,2.790547 -4.44531,4.238282 -1.44765,1.447734 -2.86101,2.929885 -4.23828,4.445312 -1.37727,1.515427 -2.71923,3.064093 -4.02344,4.644531 -1.30421,1.580438 -2.57036,3.191216 -3.79883,4.833985 -1.22847,1.642768 -2.41831,3.317114 -3.56835,5.019531 -1.15005,1.702417 -2.26113,3.433975 -3.33008,5.193359 -1.06895,1.759385 -2.09687,3.545705 -3.08203,5.359375 -0.98517,1.813671 -1.92747,3.654256 -2.82618,5.519531 -0.89871,1.865276 -1.75293,3.755723 -2.5625,5.669922 -0.80957,1.9142 -1.57521,3.852059 -2.29297,5.8125 -0.71775,1.960442 -1.38846,3.943263 -2.01171,5.947266 -0.62326,2.004003 -1.19854,4.029336 -1.72461,6.074219 -0.52608,2.044882 -1.00347,4.110281 -1.429691,6.193361 -0.42622,2.08308 -0.801315,4.18413 -1.125,6.30273 -0.323684,2.1186 -0.595984,4.25482 -0.814453,6.40625 -0.218469,2.15144 -0.383566,4.31841 -0.49414,6.5 C 96.055441,123.59565 96,125.79094 96,128 c 0,2.20906 0.05544,4.40435 0.166016,6.58594 0.110574,2.18159 0.275671,4.34856 0.49414,6.5 0.218469,2.15143 0.490769,4.28765 0.814453,6.40625 0.323685,2.1186 0.69878,4.21965 1.125,6.30273 0.426221,2.08308 0.903611,4.14848 1.429691,6.19336 0.52607,2.04488 1.10135,4.07022 1.72461,6.07422 0.62325,2.004 1.29396,3.98682 2.01171,5.94727 0.71776,1.96044 1.4834,3.8983 2.29297,5.8125 0.80957,1.91419 1.66379,3.80464 2.5625,5.66992 0.89871,1.86527 1.84101,3.70586 2.82618,5.51953 0.98516,1.81367 2.01308,3.59999 3.08203,5.35937 1.06895,1.75939 2.18003,3.49095 3.33008,5.19336 1.15004,1.70242 2.33988,3.37677 3.56835,5.01953 1.22847,1.64277 2.49462,3.25355 3.79883,4.83399 1.30421,1.58044 2.64617,3.1291 4.02344,4.64453 1.37727,1.51543 2.79063,2.99758 4.23828,4.44531 1.44766,1.44774 2.92995,2.86092 4.44531,4.23828 1.51536,1.37736 3.0622,2.71914 4.64258,4.02344 1.58039,1.30431 3.19321,2.57221 4.83594,3.80078 1.64273,1.22857 3.31714,2.41821 5.01953,3.56836 1.70239,1.15015 3.43203,2.26103 5.19141,3.33008 1.75937,1.06905 3.54764,2.09676 5.36133,3.08203 1.81368,0.98527 3.65422,1.92736 5.51953,2.82617 1.86531,0.89881 3.75566,1.75479 5.66992,2.56446 1.91426,0.80966 3.85197,1.57317 5.8125,2.29101 1.96052,0.71785 3.94315,1.39034 5.94726,2.01367 2.00412,0.62334 4.0292,1.19846 6.07422,1.72461 2.04503,0.52616 4.11011,1.00145 6.19336,1.42774 2.08325,0.42628 4.18589,0.80322 6.30469,1.12695 2.1188,0.32374 4.25458,0.59595 6.40625,0.81445 2.15167,0.21851 4.31814,0.38355 6.5,0.49414 C 219.59397,255.94458 221.79063,256 224,256 c 2.20937,0 4.40603,-0.0554 6.58789,-0.16602 2.18186,-0.11059 4.34833,-0.27563 6.5,-0.49414 2.15167,-0.2185 4.28745,-0.49071 6.40625,-0.81445 2.1188,-0.32373 4.22144,-0.70067 6.30469,-1.12695 2.08325,-0.42629 4.14833,-0.90158 6.19336,-1.42774 2.04502,-0.52615 4.0701,-1.10127 6.07422,-1.72461 2.00411,-0.62333 3.98674,-1.29582 5.94726,-2.01367 1.96053,-0.71784 3.89824,-1.48135 5.8125,-2.29101 1.91426,-0.80967 3.80461,-1.66565 5.66992,-2.56446 1.86531,-0.89881 3.70585,-1.8409 5.51953,-2.82617 1.81369,-0.98527 3.60196,-2.01298 5.36133,-3.08203 1.75938,-1.06905 3.49097,-2.17993 5.19336,-3.33008 1.7024,-1.15015 3.37485,-2.33979 5.01758,-3.56836 1.64273,-1.22857 3.25555,-2.49647 4.83594,-3.80078 1.58038,-1.3043 3.12722,-2.64608 4.64258,-4.02344 1.51536,-1.37736 2.99765,-2.79054 4.44531,-4.23828 1.44766,-1.44773 2.86101,-2.92988 4.23828,-4.44531 1.37727,-1.51543 2.71923,-3.06409 4.02344,-4.64453 1.30421,-1.58044 2.57036,-3.19122 3.79883,-4.83399 1.22847,-1.64276 2.42026,-3.31711 3.57031,-5.01953 1.15005,-1.70241 2.25917,-3.43397 3.32812,-5.19336 1.06895,-1.75938 2.09687,-3.5457 3.08203,-5.35937 0.98517,-1.81367 1.92747,-3.65426 2.82618,-5.51953 0.89871,-1.86528 1.75293,-3.75573 2.5625,-5.66992 0.80957,-1.9142 1.57521,-3.85206 2.29297,-5.8125 0.71775,-1.96045 1.38846,-3.94327 2.01171,-5.94727 0.62326,-2.004 1.19854,-4.02934 1.72461,-6.07422 0.52608,-2.04488 1.00347,-4.11028 1.42969,-6.19336 0.42622,-2.08308 0.80132,-4.18413 1.125,-6.30273 0.32369,-2.1186 0.59598,-4.25482 0.81445,-6.40625 0.21847,-2.15144 0.38357,-4.31841 0.49414,-6.5 C 351.94456,132.40435 352,130.20906 352,128 c 0,-2.20906 -0.0554,-4.40435 -0.16602,-6.58594 -0.11057,-2.18159 -0.27567,-4.34856 -0.49414,-6.5 -0.21847,-2.15143 -0.49076,-4.28765 -0.81445,-6.40625 -0.32368,-2.1186 -0.69878,-4.21965 -1.125,-6.30273 -0.42622,-2.08308 -0.90361,-4.148479 -1.42969,-6.193361 -0.52607,-2.044883 -1.10135,-4.070216 -1.72461,-6.074219 -0.62325,-2.004003 -1.29396,-3.986824 -2.01171,-5.947266 -0.71776,-1.960441 -1.4834,-3.8983 -2.29297,-5.8125 -0.80957,-1.914199 -1.66379,-3.804646 -2.5625,-5.669922 -0.89871,-1.865275 -1.84101,-3.70586 -2.82618,-5.519531 -0.98516,-1.81367 -2.01308,-3.59999 -3.08203,-5.359375 -1.06895,-1.759384 -2.17807,-3.490942 -3.32812,-5.193359 -1.15005,-1.702417 -2.34184,-3.376763 -3.57031,-5.019531 -1.22847,-1.642769 -2.49462,-3.253547 -3.79883,-4.833985 -1.30421,-1.580438 -2.64617,-3.129104 -4.02344,-4.644531 -1.37727,-1.515427 -2.79062,-2.997578 -4.23828,-4.445312 -1.44766,-1.447735 -2.92995,-2.860921 -4.44531,-4.238282 -1.51536,-1.37736 -3.0622,-2.719132 -4.64258,-4.023437 -1.58039,-1.304306 -3.19321,-2.572212 -4.83594,-3.800781 -1.64273,-1.22857 -3.31518,-2.418209 -5.01758,-3.56836 -1.70239,-1.150151 -3.43398,-2.261026 -5.19336,-3.330078 -1.75937,-1.069052 -3.54764,-2.096759 -5.36133,-3.082031 -1.81368,-0.985272 -3.65422,-1.927361 -5.51953,-2.826172 -1.86531,-0.898811 -3.75566,-1.754785 -5.66992,-2.564453 -1.91426,-0.8096682 -3.85197,-1.5731719 -5.8125,-2.2910159 -1.96052,-0.7178439 -3.94315,-1.3903332 -5.94726,-2.0136719 -2.00412,-0.6233386 -4.0292,-1.1984573 -6.07422,-1.7246093 -2.04503,-0.5261521 -4.11011,-1.0014502 -6.19336,-1.4277344 -2.08325,-0.4262842 -4.18589,-0.8032181 -6.30469,-1.1269531 -2.1188,-0.3237351 -4.25458,-0.59594851 -6.40625,-0.81445315 -2.15167,-0.21850464 -4.31814,-0.38354767 -6.5,-0.49414063 C 228.40603,0.05542267 226.20937,0 224,0 Z" />
    <path
       id="path2"
       d="M 173.30078,304 C 77.610781,304 0,381.60078 0,477.30078 0,496.50078 15.520156,512 34.660156,512 H 413.35938 C 432.49937,512 448,496.50078 448,477.30078 448,381.60078 370.39922,304 274.69922,304 Z" />
  </g>
  <g
     id="g693">
    <path
       id="path606"
       style="fill:#800000;fill-rule:evenodd"
       d="m 316,0 c -2.20937,0 -4.40603,0.05542267 -6.58789,0.16601562 -2.18186,0.11059296 -4.34833,0.27563599 -6.5,0.49414063 -2.15167,0.21850464 -4.28745,0.49071805 -6.40625,0.81445315 -2.1188,0.323735 -4.22144,0.7006689 -6.30469,1.1269531 -2.08325,0.4262842 -4.14833,0.9015823 -6.19336,1.4277344 -2.04502,0.526152 -4.0701,1.1012707 -6.07422,1.7246093 -2.00411,0.6233387 -3.98674,1.295828 -5.94726,2.0136719 -1.96053,0.717844 -3.89824,1.4813477 -5.8125,2.2910159 -1.91426,0.809668 -3.80461,1.665642 -5.66992,2.564453 -1.86531,0.898811 -3.70585,1.8409 -5.51953,2.826172 -1.81369,0.985272 -3.60196,2.012979 -5.36133,3.082031 -1.75938,1.069052 -3.48902,2.179927 -5.19141,3.330078 -1.70239,1.150151 -3.3768,2.33979 -5.01953,3.56836 -1.64273,1.228569 -3.25555,2.496475 -4.83594,3.800781 -1.58038,1.304305 -3.12722,2.646077 -4.64258,4.023437 -1.51536,1.377361 -2.99765,2.790547 -4.44531,4.238282 -1.44765,1.447734 -2.86101,2.929885 -4.23828,4.445312 -1.37727,1.515427 -2.71923,3.064093 -4.02344,4.644531 -1.30421,1.580438 -2.57036,3.191216 -3.79883,4.833985 -1.22847,1.642768 -2.41831,3.317114 -3.56835,5.019531 -1.15005,1.702417 -2.26113,3.433975 -3.33008,5.193359 -1.06895,1.759385 -2.09687,3.545705 -3.08203,5.359375 -0.98517,1.813671 -1.92747,3.654256 -2.82618,5.519531 -0.89871,1.865276 -1.75293,3.755723 -2.5625,5.669922 -0.80957,1.9142 -1.57521,3.852059 -2.29297,5.8125 -0.71775,1.960442 -1.38846,3.943263 -2.01171,5.947266 -0.62326,2.004003 -1.19854,4.029336 -1.72461,6.074219 -0.52608,2.044882 -1.00347,4.110281 -1.42969,6.193361 -0.42622,2.08308 -0.80132,4.18413 -1.125,6.30273 -0.32368,2.1186 -0.59598,4.25482 -0.81445,6.40625 -0.21847,2.15144 -0.38357,4.31841 -0.49414,6.5 C 188.05544,123.59565 188,125.79094 188,128 c 0,2.20906 0.0554,4.40435 0.16602,6.58594 0.11057,2.18159 0.27567,4.34856 0.49414,6.5 0.21846,2.15143 0.49076,4.28765 0.81445,6.40625 0.32368,2.1186 0.69878,4.21965 1.125,6.30273 0.42622,2.08308 0.90361,4.14848 1.42969,6.19336 0.52607,2.04488 1.10135,4.07022 1.72461,6.07422 0.62325,2.004 1.29396,3.98682 2.01171,5.94727 0.71776,1.96044 1.4834,3.8983 2.29297,5.8125 0.80957,1.91419 1.66379,3.80464 2.5625,5.66992 0.89871,1.86527 1.84101,3.70586 2.82618,5.51953 0.98516,1.81367 2.01308,3.59999 3.08203,5.35937 1.06895,1.75939 2.18003,3.49095 3.33008,5.19336 1.15004,1.70242 2.33988,3.37677 3.56835,5.01953 1.22847,1.64277 2.49462,3.25355 3.79883,4.83399 1.30421,1.58044 2.64617,3.1291 4.02344,4.64453 1.37727,1.51543 2.79063,2.99758 4.23828,4.44531 1.44766,1.44774 2.92995,2.86092 4.44531,4.23828 1.51536,1.37736 3.0622,2.71914 4.64258,4.02344 1.58039,1.30431 3.19321,2.57221 4.83594,3.80078 1.64273,1.22857 3.31714,2.41821 5.01953,3.56836 1.70239,1.15015 3.43203,2.26103 5.19141,3.33008 1.75937,1.06905 3.54764,2.09676 5.36133,3.08203 1.81368,0.98527 3.65422,1.92736 5.51953,2.82617 1.86531,0.89881 3.75566,1.75479 5.66992,2.56446 1.91426,0.80966 3.85197,1.57317 5.8125,2.29101 1.96052,0.71785 3.94315,1.39034 5.94726,2.01367 2.00412,0.62334 4.0292,1.19846 6.07422,1.72461 2.04503,0.52616 4.11011,1.00145 6.19336,1.42774 2.08325,0.42628 4.18589,0.80322 6.30469,1.12695 2.1188,0.32374 4.25458,0.59595 6.40625,0.81445 2.15167,0.21851 4.31814,0.38355 6.5,0.49414 C 311.59397,255.94458 313.79063,256 316,256 c 2.20937,0 4.40603,-0.0554 6.58789,-0.16602 2.18186,-0.11059 4.34833,-0.27563 6.5,-0.49414 2.15167,-0.2185 4.28745,-0.49071 6.40625,-0.81445 2.1188,-0.32373 4.22144,-0.70067 6.30469,-1.12695 2.08325,-0.42629 4.14833,-0.90158 6.19336,-1.42774 2.04502,-0.52615 4.0701,-1.10127 6.07422,-1.72461 2.00411,-0.62333 3.98674,-1.29582 5.94726,-2.01367 1.96053,-0.71784 3.89824,-1.48135 5.8125,-2.29101 1.91426,-0.80967 3.80461,-1.66565 5.66992,-2.56446 1.86531,-0.89881 3.70585,-1.8409 5.51953,-2.82617 1.81369,-0.98527 3.60196,-2.01298 5.36133,-3.08203 1.75938,-1.06905 3.49097,-2.17993 5.19336,-3.33008 1.7024,-1.15015 3.37485,-2.33979 5.01758,-3.56836 1.64273,-1.22857 3.25555,-2.49647 4.83594,-3.80078 1.58038,-1.3043 3.12722,-2.64608 4.64258,-4.02344 1.51536,-1.37736 2.99765,-2.79054 4.44531,-4.23828 1.44766,-1.44773 2.86101,-2.92988 4.23828,-4.44531 1.37727,-1.51543 2.71923,-3.06409 4.02344,-4.64453 1.30421,-1.58044 2.57036,-3.19122 3.79883,-4.83399 1.22847,-1.64276 2.42026,-3.31711 3.57031,-5.01953 1.15005,-1.70241 2.25917,-3.43397 3.32812,-5.19336 1.06895,-1.75938 2.09687,-3.5457 3.08203,-5.35937 0.98517,-1.81367 1.92747,-3.65426 2.82618,-5.51953 0.89871,-1.86528 1.75293,-3.75573 2.5625,-5.66992 0.80957,-1.9142 1.57521,-3.85206 2.29297,-5.8125 0.71775,-1.96045 1.38846,-3.94327 2.01171,-5.94727 0.62326,-2.004 1.19854,-4.02934 1.72461,-6.07422 0.52608,-2.04488 1.00347,-4.11028 1.42969,-6.19336 0.42622,-2.08308 0.80132,-4.18413 1.125,-6.30273 0.32369,-2.1186 0.59598,-4.25482 0.81445,-6.40625 0.21847,-2.15144 0.38357,-4.31841 0.49414,-6.5 C 443.94456,132.40435 444,130.20906 444,128 c 0,-2.20906 -0.0554,-4.40435 -0.16602,-6.58594 -0.11057,-2.18159 -0.27567,-4.34856 -0.49414,-6.5 -0.21847,-2.15143 -0.49076,-4.28765 -0.81445,-6.40625 -0.32368,-2.1186 -0.69878,-4.21965 -1.125,-6.30273 -0.42622,-2.08308 -0.90361,-4.148479 -1.42969,-6.193361 -0.52607,-2.044883 -1.10135,-4.070216 -1.72461,-6.074219 -0.62325,-2.004003 -1.29396,-3.986824 -2.01171,-5.947266 -0.71776,-1.960441 -1.4834,-3.8983 -2.29297,-5.8125 -0.80957,-1.914199 -1.66379,-3.804646 -2.5625,-5.669922 -0.89871,-1.865275 -1.84101,-3.70586 -2.82618,-5.519531 -0.98516,-1.81367 -2.01308,-3.59999 -3.08203,-5.359375 -1.06895,-1.759384 -2.17807,-3.490942 -3.32812,-5.193359 -1.15005,-1.702417 -2.34184,-3.376763 -3.57031,-5.019531 -1.22847,-1.642769 -2.49462,-3.253547 -3.79883,-4.833985 -1.30421,-1.580438 -2.64617,-3.129104 -4.02344,-4.644531 -1.37727,-1.515427 -2.79062,-2.997578 -4.23828,-4.445312 -1.44766,-1.447735 -2.92995,-2.860921 -4.44531,-4.238282 -1.51536,-1.37736 -3.0622,-2.719132 -4.64258,-4.023437 -1.58039,-1.304306 -3.19321,-2.572212 -4.83594,-3.800781 -1.64273,-1.22857 -3.31518,-2.418209 -5.01758,-3.56836 -1.70239,-1.150151 -3.43398,-2.261026 -5.19336,-3.330078 -1.75937,-1.069052 -3.54764,-2.096759 -5.36133,-3.082031 -1.81368,-0.985272 -3.65422,-1.927361 -5.51953,-2.826172 -1.86531,-0.898811 -3.75566,-1.754785 -5.66992,-2.564453 -1.91426,-0.8096682 -3.85197,-1.5731719 -5.8125,-2.2910159 -1.96052,-0.7178439 -3.94315,-1.3903332 -5.94726,-2.0136719 -2.00412,-0.6233386 -4.0292,-1.1984573 -6.07422,-1.7246093 -2.04503,-0.5261521 -4.11011,-1.0014502 -6.19336,-1.4277344 -2.08325,-0.4262842 -4.18589,-0.8032181 -6.30469,-1.1269531 -2.1188,-0.3237351 -4.25458,-0.59594851 -6.40625,-0.81445315 -2.15167,-0.21850464 -4.31814,-0.38354767 -6.5,-0.49414063 C 320.40603,0.05542267 318.20937,0 316,0 Z" />
    <path
       id="path608"
       d="M 265.30078,304 C 169.61078,304 92,381.60078 92,477.30078 92,496.50078 107.52016,512 126.66016,512 H 505.35938 C 524.49937,512 540,496.50078 540,477.30078 540,381.60078 462.39922,304 366.69922,304 Z" />
    <path
       id="path614"
       style="fill:#ffffff;fill-rule:evenodd"
       d="m 314.36719,32.033203 c -0.90631,0.01764 -1.82769,0.04295 -2.62891,0.07813 -3.96305,0.182096 -7.77286,0.58248 -11.69679,1.240735 -14.17719,2.356641 -27.80686,7.953523 -39.50556,16.307991 -5.11641,3.63069 -9.86397,7.776481 -14.18437,12.324321 -0.52905,0.576725 -1.27309,1.362826 -1.86737,2.035783 -10.36792,11.541597 -17.90327,25.62257 -21.61843,40.693852 -3.97119,15.95136 -3.79036,32.9225 0.57369,48.77427 0.26807,0.97401 0.62048,2.19128 0.9565,3.25063 0.37781,1.20053 0.76452,2.35853 1.16537,3.46649 6.03085,17.02774 17.02401,32.24049 31.26041,43.35425 10.66269,8.39532 23.32355,14.58266 36.60759,17.74561 3.34928,0.81125 6.92119,1.45114 10.22693,1.88029 8.80924,1.13717 17.77027,1.03414 26.55859,-0.24024 0.47679,-0.0727 1.31175,-0.20799 1.92578,-0.30469 20.67195,-3.49673 40.10326,-13.99128 54.27908,-29.45085 4.5038,-4.88154 8.52299,-10.21417 11.94358,-15.90852 0.28538,-0.47747 0.66376,-1.11011 0.94766,-1.61555 1.02123,-1.76707 2.0031,-3.62087 2.86199,-5.37207 4.38869,-8.89743 7.38189,-18.48683 8.78996,-28.30925 0.0779,-0.55849 0.19533,-1.36506 0.25909,-1.93225 0.62399,-4.94817 0.84677,-9.94432 0.70966,-14.92908 -0.017,-0.49786 -0.0334,-1.24827 -0.0629,-1.70973 -0.0613,-1.25837 -0.12697,-2.3174 -0.23546,-3.59688 -1.64801,-20.394528 -10.16499,-40.124715 -23.74355,-55.414555 -11.69064,-13.211219 -27.05971,-23.153317 -43.96202,-28.24193 -8.30765,-2.51743 -16.95763,-3.893676 -25.63478,-4.111127 -1.18756,-0.02463 -2.6458,-0.0357 -3.92578,-0.01563 z" />
    <path
       id="path650"
       style="fill:#ffffff"
       d="m 294.08203,338.01758 c -11.75888,0.031 -23.51918,0.0386 -35.27682,0.17517 -23.94028,1.04028 -47.57389,8.45053 -67.80184,21.30344 -20.92306,13.21873 -38.2538,32.07823 -49.57417,54.09358 -9.77245,18.93425 -15.07412,40.15887 -15.36972,61.46294 -0.01,0.96094 -0.0189,1.92189 -0.0282,2.88284 15.67855,0.0908 31.35757,0.0279 47.03633,0.0529 110.28333,0.0334 220.56667,-0.0136 330.84999,-0.0607 0.67201,-6.3e-4 1.34402,-0.001 2.01602,-0.002 0.12682,-8.74088 -0.74425,-17.48117 -2.28734,-26.07929 -3.78864,-20.81919 -12.53413,-40.68598 -25.18313,-57.63962 -14.84884,-19.96603 -35.11221,-35.87781 -58.08867,-45.45013 -16.38542,-6.86061 -34.10437,-10.52812 -51.87014,-10.68147 -10.26792,-0.13093 -20.53734,-0.0305 -30.80587,-0.0604 -14.53881,0.005 -29.07761,-0.0131 -43.61641,0.003 z" />
  </g>
</svg>
